<mxfile host="Electron" modified="2023-12-12T08:48:08.413Z" agent="Mozilla/5.0 (Windows NT 10.0; Win64; x64) AppleWebKit/537.36 (KHTML, like Gecko) draw.io/22.1.2 Chrome/114.0.5735.289 Electron/25.9.4 Safari/537.36" etag="0TJ2t5RWRj90St20sny9" version="22.1.2" type="device">
  <diagram name="Page-1" id="GfenEHnhucBYkmwOPBGB">
    <mxGraphModel dx="1050" dy="621" grid="1" gridSize="10" guides="1" tooltips="1" connect="1" arrows="1" fold="1" page="1" pageScale="1" pageWidth="850" pageHeight="1100" math="1" shadow="0">
      <root>
        <mxCell id="0" />
        <mxCell id="1" parent="0" />
        <mxCell id="XZ2CB5xCpgfhQAmtaaWc-6" value="" style="edgeStyle=orthogonalEdgeStyle;rounded=0;orthogonalLoop=1;jettySize=auto;html=1;" parent="1" source="XZ2CB5xCpgfhQAmtaaWc-7" target="XZ2CB5xCpgfhQAmtaaWc-9" edge="1">
          <mxGeometry relative="1" as="geometry" />
        </mxCell>
        <mxCell id="XZ2CB5xCpgfhQAmtaaWc-7" value="Début" style="ellipse;whiteSpace=wrap;html=1;" parent="1" vertex="1">
          <mxGeometry x="400" y="40" width="80" height="40" as="geometry" />
        </mxCell>
        <mxCell id="XZ2CB5xCpgfhQAmtaaWc-8" value="" style="edgeStyle=orthogonalEdgeStyle;rounded=0;orthogonalLoop=1;jettySize=auto;html=1;" parent="1" source="XZ2CB5xCpgfhQAmtaaWc-9" target="XZ2CB5xCpgfhQAmtaaWc-10" edge="1">
          <mxGeometry relative="1" as="geometry" />
        </mxCell>
        <mxCell id="XZ2CB5xCpgfhQAmtaaWc-9" value="Calcule les valeurs de membership combinées du voxel `j`&lt;br&gt;$$U_j =&amp;nbsp; \big\{ u_{ij} \in \mathbb{R} \mid \forall i \in \{1,2,...,C\} \big\} = \left\{\frac{ \mu^p_{ij} * l^q_{iM_j} }{ \sum_{\lambda=1}^C{ \left(\mu^p_{\lambda&amp;nbsp;j}*l^q_{\lambda&amp;nbsp;M_j} \right)}} \right\}$$" style="whiteSpace=wrap;html=1;spacingTop=12;" parent="1" vertex="1">
          <mxGeometry x="239.25" y="120" width="401.5" height="120" as="geometry" />
        </mxCell>
        <mxCell id="XZ2CB5xCpgfhQAmtaaWc-10" value="Arrêt" style="ellipse;whiteSpace=wrap;html=1;" parent="1" vertex="1">
          <mxGeometry x="400" y="280" width="80" height="40" as="geometry" />
        </mxCell>
      </root>
    </mxGraphModel>
  </diagram>
</mxfile>
